<svg width="14.000000" height="14.000000" viewBox="0 0 14 14" fill="none"
        xmlns="http://www.w3.org/2000/svg" xmlns:xlink="http://www.w3.org/1999/xlink">
        <defs>
                <clipPath id="clip3751_14697">
                        <rect id="warning-fill" width="14.000000" height="14.000000" fill="white"
                                fill-opacity="0" />
                </clipPath>
        </defs>
        <g clip-path="url(#clip3751_14697)">
                <path id="path"
                        d="M13.12 7C13.12 10.38 10.38 13.12 7 13.12C3.61 13.12 0.87 10.38 0.87 7C0.87 3.61 3.61 0.87 7 0.87C10.38 0.87 13.12 3.61 13.12 7ZM7.78 8.99C7.78 8.8 7.62 8.65 7.44 8.65L6.55 8.65C6.36 8.65 6.21 8.8 6.21 8.99L6.21 9.87C6.21 10.06 6.36 10.21 6.55 10.21L7.44 10.21C7.62 10.21 7.78 10.06 7.78 9.87L7.78 8.99ZM7.78 3.99C7.78 3.8 7.62 3.65 7.44 3.65L6.55 3.65C6.36 3.65 6.21 3.8 6.21 3.99L6.21 7.57C6.21 7.76 6.36 7.91 6.55 7.91L7.44 7.91C7.62 7.91 7.78 7.76 7.78 7.57L7.78 3.99Z"
                        fill="#FFAF2A" fill-opacity="1.000000" fill-rule="evenodd" />
        </g>
</svg>