<svg width="18.000000" height="18.000000" viewBox="0 0 18 18" fill="none" xmlns="http://www.w3.org/2000/svg" xmlns:xlink="http://www.w3.org/1999/xlink">
	<desc>
			Created with Pixso.
	</desc>
	<defs>
		<clipPath id="clip390_5121">
			<rect id="approval (1)" width="18.000000" height="18.000000" fill="white" fill-opacity="0"/>
		</clipPath>
		<clipPath id="clip390_5120">
			<rect id="record-information" width="18.000000" height="18.000000" fill="white" fill-opacity="0"/>
		</clipPath>
	</defs>
	<g clip-path="url(#clip390_5120)">
		<g clip-path="url(#clip390_5121)">
			<path id="path" d="M9 0.75C11.27 0.75 13.12 2.59 13.12 4.87C13.12 6.13 12.55 7.26 11.66 8.02L13.17 11.25L16.12 11.25C16.33 11.25 16.5 11.32 16.65 11.46C16.8 11.61 16.87 11.79 16.87 12L16.87 16.12C16.87 16.33 16.8 16.5 16.65 16.65C16.5 16.8 16.33 16.87 16.12 16.87L1.87 16.87C1.66 16.87 1.49 16.8 1.34 16.65C1.19 16.5 1.12 16.33 1.12 16.12L1.12 12C1.12 11.79 1.19 11.61 1.34 11.46C1.49 11.32 1.66 11.25 1.87 11.25L4.82 11.25L6.33 8.02C5.35 7.19 4.87 6.14 4.87 4.87C4.87 2.59 6.72 0.75 9 0.75ZM15.37 12.75L2.62 12.75L2.62 15.37L15.37 15.37L15.37 12.75ZM9 2.25C8.65 2.25 8.31 2.31 7.99 2.44C7.67 2.58 7.38 2.77 7.14 3.01C6.89 3.26 6.7 3.54 6.57 3.87C6.44 4.19 6.37 4.52 6.37 4.87C6.37 5.62 6.68 6.31 7.22 6.8L7.3 6.87C7.56 7.09 7.72 7.37 7.79 7.7C7.86 8.03 7.83 8.34 7.69 8.65L6.47 11.25L11.52 11.25L10.3 8.65C10.17 8.36 10.13 8.05 10.19 7.74C10.25 7.42 10.4 7.15 10.63 6.93L10.69 6.87C11.31 6.35 11.62 5.68 11.62 4.87C11.62 4.52 11.55 4.19 11.42 3.87C11.29 3.54 11.1 3.26 10.85 3.01C10.61 2.77 10.32 2.58 10 2.44C9.68 2.31 9.34 2.25 9 2.25Z" fill="currentColor" fill-opacity="1.000000" fill-rule="evenodd"/>
		</g>
	</g>
</svg>
