<svg width="18.000000" height="18.000000" viewBox="0 0 18 18" fill="none"
	xmlns="http://www.w3.org/2000/svg" xmlns:xlink="http://www.w3.org/1999/xlink">

	<defs>
		<clipPath id="clip613_273">
			<rect id="data board/未选中" width="18.000000" height="18.000000" fill="white"
				fill-opacity="0" />
		</clipPath>
	</defs>
	<g clip-path="url(#clip613_273)">
		<path
			d="M1.5 1.25L16.5 1.25C16.92 1.25 17.25 1.58 17.25 2C17.25 2.41 16.92 2.75 16.5 2.75L16.25 2.75L16.25 12.79C16.25 12.86 16.24 12.93 16.23 12.99C16.21 13.05 16.19 13.11 16.17 13.16C16.15 13.22 16.12 13.27 16.08 13.32C16.05 13.37 16.01 13.42 15.97 13.47C15.92 13.51 15.87 13.55 15.82 13.58C15.77 13.62 15.72 13.65 15.67 13.67C15.61 13.69 15.55 13.71 15.49 13.73C15.43 13.74 15.36 13.75 15.3 13.75L12.31 13.75L14.03 15.46C14.32 15.76 14.32 16.23 14.03 16.53C13.73 16.82 13.26 16.82 12.97 16.53L10.18 13.75L7.81 13.75L5.03 16.53C4.73 16.82 4.26 16.82 3.96 16.53C3.67 16.23 3.67 15.76 3.96 15.46L5.68 13.75L2.69 13.75C2.63 13.75 2.56 13.74 2.5 13.73C2.44 13.71 2.38 13.69 2.32 13.67C2.27 13.65 2.22 13.62 2.17 13.58C2.12 13.55 2.07 13.51 2.02 13.47C1.98 13.42 1.94 13.37 1.91 13.32C1.87 13.27 1.84 13.22 1.82 13.16C1.8 13.11 1.78 13.05 1.76 12.99C1.75 12.93 1.75 12.86 1.75 12.79L1.75 2.75L1.5 2.75C1.07 2.75 0.75 2.41 0.75 2C0.75 1.58 1.07 1.25 1.5 1.25ZM14.75 12.25L10.56 12.25C10.52 12.24 10.47 12.24 10.43 12.25L7.56 12.25C7.52 12.24 7.47 12.24 7.43 12.25L3.25 12.25L3.25 2.75L14.75 2.75L14.75 12.25ZM10.11 10L14.06 5.49C14.34 5.17 14.3 4.71 13.99 4.43C13.67 4.15 13.21 4.18 12.93 4.5L9.88 7.99L6.35 5.47L3.91 8.53C3.65 8.85 3.7 9.32 4.03 9.58C4.35 9.84 4.82 9.79 5.08 9.46L6.64 7.52L10.11 10Z"
			fill="#303133" fill-opacity="1.000000" fill-rule="evenodd" />
	</g>
</svg>