<svg width="18.000000" height="18.000000" viewBox="0 0 18 18" fill="none" xmlns="http://www.w3.org/2000/svg" xmlns:xlink="http://www.w3.org/1999/xlink">
	<desc>
			Created with Pixso.
	</desc>
	<defs>
		<clipPath id="clip3751_24797">
			<rect id="dynamic-decision-making" width="18.000000" height="18.000000" fill="white" fill-opacity="0"/>
		</clipPath>
		<clipPath id="clip3751_24796">
			<rect id="log-search" width="18.000000" height="18.000000" fill="white" fill-opacity="0"/>
		</clipPath>
		<clipPath id="clip3751_24795">
			<rect id="log-search" width="18.000000" height="18.000000" fill="white" fill-opacity="0"/>
		</clipPath>
	</defs>
	<g clip-path="url(#clip3751_24795)">
		<g clip-path="url(#clip3751_24796)">
			<g clip-path="url(#clip3751_24797)">
				<path id="path" d="M16.06 8.67L17.96 10.66C18.02 10.72 18.02 10.78 17.96 10.83C17.94 10.86 17.91 10.87 17.88 10.87L16.65 10.87C15.8 14.31 12.7 16.87 9 16.87C5.29 16.87 2.19 14.31 1.34 10.87L2.9 10.87C3.7 13.48 6.13 15.37 9 15.37C11.86 15.37 14.29 13.48 15.09 10.87L13.99 10.87C13.91 10.87 13.87 10.83 13.87 10.75C13.87 10.72 13.88 10.68 13.9 10.66L15.81 8.67C15.89 8.59 15.97 8.59 16.06 8.67ZM0.11 7.12L4 7.12C4.03 7.12 4.06 7.13 4.09 7.16C4.13 7.2 4.13 7.25 4.1 7.31L2.18 9.32C2.12 9.39 2.04 9.4 1.96 9.34L0.03 7.33C0 7.29 -0.01 7.25 0 7.21C0.01 7.17 0.07 7.13 0.11 7.12L4 7.12L0.11 7.12ZM9 1.12C12.7 1.12 15.8 3.68 16.65 7.12L15.09 7.12C14.29 4.51 11.86 2.62 9 2.62C6.13 2.62 3.7 4.51 2.9 7.12L1.34 7.12C2.19 3.68 5.29 1.12 9 1.12Z" fill="currentColor" fill-opacity="1.000000" fill-rule="evenodd"/>
			</g>
		</g>
	</g>
</svg>
