<svg t="1722579668096" class="icon" viewBox="0 0 1024 1024" version="1.1" xmlns="http://www.w3.org/2000/svg" p-id="6778" width="18" height="18"><path d="M568.32 97.28L844.8 256c35.84 20.48 56.32 61.44 56.32 102.4v317.44c0 40.96-20.48 81.92-56.32 102.4l-276.48 158.72c-35.84 20.48-81.92 20.48-117.76 0l-276.48-158.72c-35.84-20.48-56.32-61.44-56.32-102.4V353.28c0-40.96 20.48-81.92 56.32-102.4l276.48-158.72c40.96-15.36 81.92-15.36 117.76 5.12z m-81.92 51.2L209.92 307.2c-20.48 10.24-30.72 30.72-30.72 46.08v317.44c0 20.48 10.24 35.84 25.6 46.08l276.48 158.72c15.36 10.24 35.84 10.24 56.32 0l276.48-158.72c15.36-10.24 25.6-25.6 25.6-46.08V353.28c0-20.48-10.24-35.84-25.6-46.08l-276.48-158.72c-15.36-10.24-35.84-10.24-51.2 0zM773.12 358.4c10.24 15.36 5.12 35.84-10.24 40.96l-220.16 138.24v240.64c0 15.36-15.36 30.72-30.72 30.72s-30.72-15.36-30.72-30.72v-240.64L256 409.6c-15.36-5.12-20.48-25.6-10.24-40.96 10.24-15.36 25.6-20.48 40.96-10.24L512 486.4l220.16-133.12c10.24-15.36 30.72-10.24 40.96 5.12z" fill="currentColor" p-id="6779"></path></svg>