<svg width="20.000000" height="20.000000" viewBox="0 0 20 20" fill="none" xmlns="http://www.w3.org/2000/svg" xmlns:xlink="http://www.w3.org/1999/xlink">
	<desc>
			Created with Pixso.
	</desc>
	<defs>
		<clipPath id="clip6047_4319">
			<rect id="earth (3)" width="20.000000" height="20.000000" fill="white" fill-opacity="0"/>
		</clipPath>
	</defs>
	<g clip-path="url(#clip6047_4319)">
		<path id="path" d="M10 1.5C14.69 1.5 18.5 5.3 18.5 10C18.5 14.69 14.69 18.5 10 18.5C5.3 18.5 1.5 14.69 1.5 10C1.5 5.3 5.3 1.5 10 1.5ZM7.69 10.77C7.77 12.55 8.13 14.17 8.67 15.37C8.94 15.97 9.25 16.42 9.54 16.7C9.75 16.88 9.89 16.95 10 16.95C10.1 16.95 10.24 16.88 10.45 16.7C10.74 16.42 11.05 15.97 11.32 15.37C11.87 14.17 12.22 12.55 12.3 10.77L7.69 10.77ZM7.46 16.41L7.5 16.49L7.37 16.44C5.06 15.5 3.37 13.34 3.08 10.77L6.15 10.77C6.24 13.01 6.73 15.01 7.46 16.41ZM16.91 10.77L13.84 10.77C13.75 13.06 13.24 15.09 12.49 16.49C14.87 15.58 16.62 13.39 16.91 10.77ZM12.53 3.58L12.49 3.5L12.62 3.55C14.93 4.49 16.62 6.65 16.91 9.22L13.84 9.22C13.75 6.98 13.26 4.98 12.53 3.58ZM7.5 3.5L7.46 3.52C5.1 4.44 3.37 6.62 3.08 9.22L6.15 9.22C6.24 7.01 6.71 5.04 7.43 3.64L7.5 3.5ZM9.54 3.29C9.75 3.11 9.89 3.04 10 3.04C10.1 3.05 10.26 3.12 10.45 3.29C10.74 3.57 11.05 4.02 11.32 4.62C11.87 5.82 12.22 7.45 12.3 9.22L7.69 9.22C7.77 7.45 8.13 5.82 8.67 4.62C8.94 4.02 9.25 3.57 9.54 3.29Z" fill="#303133" fill-opacity="1.000000" fill-rule="evenodd"/>
	</g>
</svg>
