<svg width="18.000000" height="18.000000" viewBox="0 0 18 18" fill="none" xmlns="http://www.w3.org/2000/svg" xmlns:xlink="http://www.w3.org/1999/xlink">
	<defs>
		<clipPath id="clip751_10593">
			<rect id="edit (1)" width="18.000000" height="18.000000" fill="white" fill-opacity="0"/>
		</clipPath>
	</defs>
	<g clip-path="url(#clip751_10593)">
		<path id="path" d="M11.43 7.13L13.58 4.98Q13.71 4.85 13.71 4.72Q13.71 4.59 13.58 4.45L11.48 2.36C11.3 2.18 11.13 2.18 10.95 2.36L3.29 10.02C3.22 10.09 3.19 10.17 3.18 10.26L3 12.62C2.99 12.74 3.03 12.84 3.11 12.92C3.2 13 3.3 13.04 3.42 13.03L5.68 12.76C5.77 12.75 5.85 12.71 5.91 12.65L11.43 7.13Z" fill="#000000" fill-opacity="0" fill-rule="evenodd"/>
		<path id="path" d="M13.58 4.98C13.75 4.81 13.75 4.63 13.58 4.45L11.48 2.36C11.3 2.18 11.13 2.18 10.95 2.36L8.8 4.51L3.29 10.02C3.22 10.09 3.19 10.17 3.18 10.26L3 12.62C2.99 12.74 3.03 12.84 3.11 12.92C3.2 13 3.3 13.04 3.42 13.03L5.68 12.76C5.77 12.75 5.85 12.71 5.91 12.65L11.43 7.13L13.58 4.98ZM11.43 7.13L8.8 4.51M2.25 15.74L15.75 15.74" stroke="#008DF9" stroke-opacity="1.000000" stroke-width="1.500000"/>
	</g>
</svg>

