<svg width="44.000000" height="44.000000" viewBox="0 0 44 44" fill="none" xmlns="http://www.w3.org/2000/svg" xmlns:xlink="http://www.w3.org/1999/xlink">
	<desc>
			Created with Pixso.
	</desc>
	<defs>
		<filter id="filter_2763_34515_dd" x="-4.000000" y="-4.000000" width="52.000000" height="52.000000" filterUnits="userSpaceOnUse" color-interpolation-filters="sRGB">
			<feFlood flood-opacity="0" result="BackgroundImageFix"/>
			<feColorMatrix in="SourceAlpha" type="matrix" values="0 0 0 0 0 0 0 0 0 0 0 0 0 0 0 0 0 0 127 0" result="hardAlpha"/>
			<feOffset dx="0" dy="0"/>
			<feGaussianBlur stdDeviation="3.33333"/>
			<feComposite in2="hardAlpha" operator="out" k2="-1" k3="1"/>
			<feColorMatrix type="matrix" values="0 0 0 0 0 0 0 0 0 0.72941 0 0 0 0 0.78039 0 0 0 0.4 0"/>
			<feBlend mode="normal" in2="BackgroundImageFix" result="effect_dropShadow_1"/>
			<feBlend mode="normal" in="SourceGraphic" in2="effect_dropShadow_1" result="shape"/>
		</filter>
		<clipPath id="clip2763_34515">
			<rect id="icon/下发周知" rx="15.500000" width="31.000000" height="31.000000" transform="translate(6.500000 6.500000)" fill="white" fill-opacity="0"/>
		</clipPath>
		<clipPath id="clip2763_34516">
			<rect id="文件编号" rx="22.000000" width="44.000000" height="44.000000" fill="white" fill-opacity="0"/>
		</clipPath>
		<linearGradient x1="22.000000" y1="6.000000" x2="22.000000" y2="38.000000" id="paint_linear_2763_34515_0" gradientUnits="userSpaceOnUse">
			<stop stop-color="#A9FAFF"/>
			<stop offset="1.000000" stop-color="#00BAC7"/>
		</linearGradient>
	</defs>
	<rect id="文件编号" rx="22.000000" width="44.000000" height="44.000000" fill="#FFFFFF" fill-opacity="0"/>
	<g clip-path="url(#clip2763_34516)">
		<g filter="url(#filter_2763_34515_dd)">
			<rect id="icon/下发周知" rx="15.500000" width="31.000000" height="31.000000" transform="translate(6.500000 6.500000)" fill="url(#paint_linear_2763_34515_0)" fill-opacity="1.000000"/>
			<g clip-path="url(#clip2763_34515)">
				<path id="path" d="M28.4 14C28.47 14 28.55 14 28.63 14.01C28.71 14.01 28.79 14.03 28.86 14.04C28.94 14.06 29.02 14.08 29.09 14.1C29.17 14.12 29.24 14.15 29.31 14.18C29.39 14.21 29.46 14.24 29.53 14.28C29.6 14.32 29.66 14.36 29.73 14.4C29.79 14.44 29.86 14.49 29.92 14.54C29.98 14.59 30.04 14.64 30.09 14.7C30.15 14.75 30.2 14.81 30.25 14.87C30.3 14.93 30.35 15 30.39 15.06C30.43 15.13 30.47 15.19 30.51 15.26C30.55 15.33 30.58 15.4 30.61 15.48C30.64 15.55 30.67 15.62 30.69 15.7C30.71 15.77 30.73 15.85 30.75 15.93C30.76 16 30.78 16.08 30.78 16.16C30.79 16.24 30.8 16.32 30.8 16.39L30.8 18L29.2 18L29.2 27.6C29.2 27.67 29.19 27.75 29.18 27.83C29.18 27.91 29.16 27.99 29.15 28.06C29.13 28.14 29.11 28.22 29.09 28.29C29.07 28.37 29.04 28.44 29.01 28.51C28.98 28.59 28.95 28.66 28.91 28.73C28.87 28.8 28.83 28.86 28.79 28.93C28.75 28.99 28.7 29.06 28.65 29.12C28.6 29.18 28.55 29.24 28.49 29.29C28.44 29.35 28.38 29.4 28.32 29.45C28.26 29.5 28.19 29.55 28.13 29.59C28.06 29.63 28 29.67 27.93 29.71C27.86 29.75 27.79 29.78 27.71 29.81C27.64 29.84 27.57 29.87 27.49 29.89C27.42 29.91 27.34 29.93 27.26 29.95C27.19 29.96 27.11 29.98 27.03 29.98C26.95 29.99 26.87 30 26.8 30L15.6 30C15.52 30 15.44 29.99 15.36 29.98C15.28 29.98 15.2 29.96 15.13 29.95C15.05 29.93 14.97 29.91 14.9 29.89C14.82 29.87 14.75 29.84 14.68 29.81C14.6 29.78 14.53 29.75 14.46 29.71C14.39 29.67 14.33 29.63 14.26 29.59C14.2 29.55 14.13 29.5 14.07 29.45C14.01 29.4 13.95 29.35 13.9 29.29C13.84 29.24 13.79 29.18 13.74 29.12C13.69 29.06 13.64 28.99 13.6 28.93C13.56 28.86 13.52 28.8 13.48 28.73C13.44 28.66 13.41 28.59 13.38 28.51C13.35 28.44 13.32 28.37 13.3 28.29C13.28 28.22 13.26 28.14 13.24 28.06C13.23 27.99 13.21 27.91 13.21 27.83C13.2 27.75 13.2 27.67 13.2 27.6L13.2 26L26 26L26 27.6C26 27.64 26 27.69 26.01 27.74C26.02 27.79 26.03 27.83 26.05 27.88C26.06 27.92 26.09 27.97 26.11 28.01C26.14 28.05 26.16 28.09 26.2 28.13C26.23 28.16 26.26 28.2 26.3 28.23C26.34 28.26 26.38 28.28 26.43 28.3C26.47 28.33 26.51 28.35 26.56 28.36C26.61 28.37 26.65 28.38 26.7 28.39L26.8 28.39C26.84 28.39 26.89 28.39 26.94 28.38C26.99 28.37 27.03 28.36 27.08 28.34C27.12 28.33 27.17 28.3 27.21 28.28C27.25 28.25 27.29 28.23 27.33 28.19C27.36 28.16 27.4 28.13 27.43 28.09C27.46 28.05 27.48 28.01 27.5 27.97C27.53 27.92 27.55 27.88 27.56 27.83C27.57 27.78 27.58 27.74 27.59 27.69L27.6 27.6L27.6 24.39L14.8 24.39L14.8 16.39C14.8 16.32 14.8 16.24 14.81 16.16C14.81 16.08 14.83 16 14.84 15.93C14.86 15.85 14.88 15.77 14.9 15.7C14.92 15.62 14.95 15.55 14.98 15.48C15.01 15.4 15.04 15.33 15.08 15.26C15.12 15.19 15.16 15.13 15.2 15.06C15.24 15 15.29 14.93 15.34 14.87C15.39 14.81 15.44 14.75 15.5 14.7C15.55 14.64 15.61 14.59 15.67 14.54C15.73 14.49 15.8 14.44 15.86 14.4C15.93 14.36 15.99 14.32 16.06 14.28C16.13 14.24 16.2 14.21 16.28 14.18C16.35 14.15 16.42 14.12 16.5 14.1C16.57 14.08 16.65 14.06 16.73 14.04C16.8 14.03 16.88 14.01 16.96 14.01C17.04 14 17.12 14 17.2 14L28.4 14Z" fill="#FFFFFF" fill-opacity="1.000000" fill-rule="nonzero"/>
			</g>
			<rect id="icon/下发周知" rx="15.500000" width="31.000000" height="31.000000" transform="translate(6.500000 6.500000)" stroke="#707070" stroke-opacity="0" stroke-width="1.000000"/>
		</g>
	</g>
</svg>
