<svg viewBox="0 0 18 18" fill="currentColor" xmlns="http://www.w3.org/2000/svg"
	xmlns:xlink="http://www.w3.org/1999/xlink">

	<defs>
		<clipPath id="clip3751_48154">
			<rect id="blockchain (1)" width="18.000000" height="18.000000" fill="white"
				fill-opacity="0" />
		</clipPath>
	</defs>
	<g clip-path="url(#clip3751_48154)">
		<path id="path"
			d="M12 1.87C12 1.66 11.92 1.49 11.78 1.34C11.63 1.19 11.45 1.12 11.25 1.12L1.5 1.12C1.29 1.12 1.11 1.19 0.96 1.34C0.82 1.49 0.75 1.66 0.75 1.87L0.75 11.62C0.75 11.83 0.82 12 0.96 12.15C1.11 12.3 1.29 12.37 1.5 12.37L6 12.37L6 16.12C6 16.33 6.07 16.5 6.21 16.65C6.36 16.8 6.54 16.87 6.75 16.87L16.5 16.87C16.7 16.87 16.88 16.8 17.03 16.65C17.17 16.5 17.25 16.33 17.25 16.12L17.25 6.37C17.25 6.16 17.17 5.99 17.03 5.84C16.88 5.69 16.7 5.62 16.5 5.62L12 5.62L12 1.87ZM2.25 2.62L10.5 2.62L10.5 5.62L6.75 5.62C6.54 5.62 6.36 5.69 6.21 5.84C6.07 5.99 6 6.16 6 6.37L6 9.37L7.5 9.37L7.5 7.12L15.75 7.12L15.75 15.37L7.5 15.37L7.5 12.37L11.25 12.37C11.45 12.37 11.63 12.3 11.78 12.15C11.92 12 12 11.83 12 11.62L12 8.62L10.5 8.62L10.5 10.87L2.25 10.87L2.25 2.62Z"
			fill-opacity="1.000000" fill-rule="evenodd" />
	</g>
</svg>