<svg width="18.000000" height="18.000000" viewBox="0 0 18 18" fill="none" xmlns="http://www.w3.org/2000/svg" xmlns:xlink="http://www.w3.org/1999/xlink">
	<desc>
			Created with Pixso.
	</desc>
	<defs>
		<clipPath id="clip3751_24815">
			<rect id="log-search" width="18.000000" height="18.000000" fill="white" fill-opacity="0"/>
		</clipPath>
	</defs>
	<g clip-path="url(#clip3751_24815)">
		<path id="path" d="M12.75 10.5C13 10.49 13.25 10.53 13.5 10.59C13.75 10.66 13.99 10.75 14.21 10.88C14.44 11 14.64 11.16 14.83 11.33C15.01 11.51 15.17 11.71 15.3 11.93C15.44 12.15 15.54 12.38 15.62 12.63C15.69 12.87 15.73 13.12 15.74 13.38C15.75 13.64 15.73 13.89 15.68 14.14C15.62 14.39 15.53 14.63 15.42 14.86L16.65 16.1C16.83 16.27 16.83 16.45 16.65 16.63L16.02 17.26C15.84 17.44 15.66 17.44 15.49 17.26L14.29 16.07C14.09 16.19 13.88 16.28 13.66 16.35C13.44 16.42 13.22 16.47 12.99 16.49C12.76 16.5 12.53 16.5 12.3 16.46C12.07 16.43 11.85 16.37 11.63 16.28C11.42 16.2 11.22 16.09 11.03 15.95C10.84 15.82 10.67 15.67 10.51 15.5C10.36 15.33 10.22 15.14 10.11 14.93C10 14.73 9.92 14.52 9.86 14.3C9.79 14.07 9.76 13.85 9.75 13.62C9.74 13.39 9.76 13.16 9.8 12.93C9.84 12.7 9.91 12.48 10.01 12.27C10.1 12.06 10.22 11.86 10.36 11.68C10.5 11.5 10.66 11.33 10.83 11.18C11.01 11.04 11.21 10.91 11.41 10.81C11.62 10.7 11.84 10.63 12.06 10.57C12.29 10.52 12.51 10.5 12.75 10.5ZM15 0.75C15.2 0.75 15.38 0.82 15.53 0.96C15.67 1.11 15.75 1.29 15.75 1.5L15.75 8.25L14.25 8.25L14.25 2.25L3.75 2.25L3.75 15.75L8.25 15.75L8.25 17.25L3 17.25C2.79 17.25 2.61 17.17 2.46 17.03C2.32 16.88 2.25 16.7 2.25 16.5L2.25 1.5C2.25 1.29 2.32 1.11 2.46 0.96C2.61 0.82 2.79 0.75 3 0.75L15 0.75ZM12.75 12C12.33 12 11.98 12.14 11.68 12.43C11.39 12.73 11.25 13.08 11.25 13.5C11.25 13.91 11.39 14.26 11.68 14.56C11.98 14.85 12.33 15 12.75 15C13.16 15 13.51 14.85 13.81 14.56C14.1 14.26 14.25 13.91 14.25 13.5C14.25 13.08 14.1 12.73 13.81 12.43C13.51 12.14 13.16 12 12.75 12ZM9.37 8.25C9.62 8.25 9.75 8.37 9.75 8.62L9.75 9.37C9.75 9.62 9.62 9.75 9.37 9.75L5.62 9.75C5.37 9.75 5.25 9.62 5.25 9.37L5.25 8.62C5.25 8.37 5.37 8.25 5.62 8.25L9.37 8.25ZM12.37 5.25C12.62 5.25 12.75 5.37 12.75 5.62L12.75 6.37C12.75 6.62 12.62 6.75 12.37 6.75L5.62 6.75C5.37 6.75 5.25 6.62 5.25 6.37L5.25 5.62C5.25 5.37 5.37 5.25 5.62 5.25L12.37 5.25Z" fill="currentColor" fill-opacity="1.000000" fill-rule="evenodd"/>
	</g>
</svg>
