<svg width="18.000000" height="18.000000" viewBox="0 0 18 18" fill="none" xmlns="http://www.w3.org/2000/svg" xmlns:xlink="http://www.w3.org/1999/xlink">
	<desc>
			Created with Pixso.
	</desc>
	<defs>
		<clipPath id="clip3751_27935">
			<rect id="related-lists" width="18.000000" height="18.000000" transform="translate(0.000000 -4.000000)" fill="white" fill-opacity="0"/>
		</clipPath>
		<clipPath id="clip3751_27933">
			<rect id="authorization (2)" width="18.000000" height="18.000000" fill="white" fill-opacity="0"/>
		</clipPath>
		<clipPath id="clip3751_27932">
			<rect id="authorization (2)" width="18.000000" height="18.000000" fill="white" fill-opacity="0"/>
		</clipPath>
		<clipPath id="clip3751_27930">
			<rect id="authorization" width="18.000000" height="18.000000" fill="white" fill-opacity="0"/>
		</clipPath>
	</defs>
	<g clip-path="url(#clip3751_27930)">
		<g clip-path="url(#clip3751_27932)">
			<g clip-path="url(#clip3751_27933)">
				<path id="path" d="M6.95 9.64C6.22 9.19 5.57 9 4.5 9C3.03 9 1.71 9.61 0.58 10.79L0.37 11.01L0.37 15.37L0.37 15.44C0.39 15.73 0.51 15.98 0.72 16.19C0.94 16.39 1.2 16.5 1.5 16.5L10.87 16.5L11.01 16.49C13.79 16.29 15.85 14.57 17.19 11.42L17.34 11.05L17.12 10.71L17.05 10.6C16.25 9.46 15.48 9.02 14.58 9.32C14.28 9.42 14.01 9.58 13.67 9.85C13.64 9.88 13.53 9.96 13.41 10.06C13.23 10.22 12.99 10.41 12.89 10.48C12.56 10.74 12.25 10.93 11.93 11.08C11.73 10.87 11.47 10.73 11.16 10.65C10.81 10.56 10.56 10.56 9.87 10.6C9.35 10.63 9.09 10.64 8.81 10.59C8.63 10.57 8.47 10.52 8.3 10.45C8.05 10.33 7.81 10.2 7.57 10.05C7.53 10.02 7.42 9.94 7.3 9.87C7.16 9.78 7.01 9.68 6.95 9.64ZM1.98 11.52C2.75 10.83 3.58 10.5 4.5 10.5C5.29 10.5 5.67 10.61 6.16 10.91C6.2 10.94 6.32 11.02 6.45 11.1C6.58 11.19 6.71 11.28 6.77 11.31C7.07 11.5 7.35 11.66 7.67 11.81C7.96 11.94 8.26 12.03 8.59 12.08C9 12.14 9.33 12.14 9.96 12.1C10.78 12.05 10.86 12.07 10.9 12.22C11.05 12.67 9.41 13.31 7.81 12.9C6.61 12.6 5.84 12.21 5.49 11.8L4.34 12.76L4.41 12.84C5.01 13.51 6.02 14 7.44 14.35C9.66 14.92 12.23 14.1 12.42 12.51C12.9 12.3 13.35 12.03 13.81 11.67C13.93 11.58 14.21 11.35 14.4 11.19C14.5 11.11 14.58 11.05 14.6 11.03C14.81 10.86 14.95 10.78 15.05 10.74C15.1 10.73 15.12 10.73 15.19 10.77C15.31 10.84 15.46 10.99 15.64 11.22C14.5 13.67 12.91 14.89 10.83 15L1.87 15L1.87 11.62L1.98 11.52Z" fill="currentColor" fill-opacity="1.000000" fill-rule="evenodd"/>
				<g clip-path="url(#clip3751_27935)">
					<path id="减去顶层" d="M13.2803 1.21875C13.1338 1.07227 12.957 1 12.75 1L2.25 1C2.14648 1 2.05029 1.01758 1.96191 1.05469L1.96191 1.05469C1.87354 1.0918 1.79297 1.14648 1.71973 1.21875C1.64648 1.29297 1.59131 1.37305 1.55469 1.46289C1.51807 1.55078 1.5 1.64648 1.5 1.75L1.5 10L3 10L3 2.5L12 2.5L12 11.5L13.5 11.5L13.5 1.75C13.5 1.54297 13.4268 1.36523 13.2803 1.21875ZM7.40625 3.84375C7.34375 3.78125 7.25 3.75 7.125 3.75L4.5 3.75C4.375 3.75 4.28125 3.78125 4.21875 3.84375C4.15625 3.90625 4.125 4 4.125 4.125L4.125 4.875C4.125 5 4.15625 5.09375 4.21875 5.15625C4.28125 5.21875 4.375 5.25 4.5 5.25L7.125 5.25C7.25 5.25 7.34375 5.21875 7.40625 5.15625C7.46875 5.09375 7.5 5 7.5 4.875L7.5 4.125C7.5 4 7.46875 3.90625 7.40625 3.84375ZM10.7812 6.84375C10.7188 6.78125 10.625 6.75 10.5 6.75L4.5 6.75C4.375 6.75 4.28125 6.78125 4.21875 6.84375C4.15625 6.90625 4.125 7 4.125 7.125L4.125 7.875C4.125 8 4.15625 8.09375 4.21875 8.15625C4.28125 8.21875 4.375 8.25 4.5 8.25L10.5 8.25C10.625 8.25 10.7188 8.21875 10.7812 8.15625C10.8438 8.09375 10.875 8 10.875 7.875L10.875 7.125C10.875 7 10.8438 6.90625 10.7812 6.84375Z" clip-rule="evenodd" fill="currentColor" fill-opacity="1.000000" fill-rule="evenodd"/>
				</g>
			</g>
		</g>
	</g>
</svg>
