<svg width="18.000000" height="18.000000" viewBox="0 0 18 18" fill="none" xmlns="http://www.w3.org/2000/svg" xmlns:xlink="http://www.w3.org/1999/xlink">
	<desc>
			Created with Pixso.
	</desc>
	<defs>
		<clipPath id="clip453_22897">
			<rect id="clipboard-success" width="18.000000" height="18.000000" fill="white" fill-opacity="0"/>
		</clipPath>
		<clipPath id="clip453_22896">
			<rect id="complete-info" width="18.000000" height="18.000000" fill="white" fill-opacity="0"/>
		</clipPath>
	</defs>
	<g clip-path="url(#clip453_22896)">
		<g clip-path="url(#clip453_22897)">
			<path id="path" d="M12.37 1.12C12.58 1.12 12.75 1.19 12.9 1.34C13.05 1.49 13.12 1.66 13.12 1.87L13.12 2.62L15 2.62C15.2 2.62 15.38 2.69 15.53 2.84C15.67 2.99 15.75 3.16 15.75 3.37L15.75 16.12C15.75 16.33 15.67 16.5 15.53 16.65C15.38 16.8 15.2 16.87 15 16.87L3 16.87C2.79 16.87 2.61 16.8 2.46 16.65C2.32 16.5 2.25 16.33 2.25 16.12L2.25 3.37C2.25 3.16 2.32 2.99 2.46 2.84C2.61 2.69 2.79 2.62 3 2.62L4.87 2.62L4.87 1.87C4.87 1.66 4.94 1.49 5.09 1.34C5.24 1.19 5.41 1.12 5.62 1.12L12.37 1.12ZM4.87 4.12L3.75 4.12L3.75 15.37L14.25 15.37L14.25 4.12L13.12 4.12L13.12 4.87C13.12 5.08 13.05 5.25 12.9 5.4C12.75 5.55 12.58 5.62 12.37 5.62L5.62 5.62C5.41 5.62 5.24 5.55 5.09 5.4C4.94 5.25 4.87 5.08 4.87 4.87L4.87 4.12ZM11.73 7.98L12.26 8.51C12.44 8.69 12.44 8.86 12.26 9.04L8.51 12.79C8.33 12.97 8.16 12.97 7.98 12.79L5.73 10.54C5.55 10.36 5.55 10.19 5.73 10.01L6.26 9.48C6.44 9.3 6.61 9.3 6.79 9.48L8.25 10.93L11.2 7.98C11.38 7.8 11.55 7.8 11.73 7.98ZM11.62 2.62L6.37 2.62L6.37 4.12L11.62 4.12L11.62 2.62Z" fill="currentColor" fill-opacity="1.000000" fill-rule="evenodd"/>
		</g>
	</g>
</svg>
