<?xml version="1.0" encoding="UTF-8"?>
<svg width="1em" height="1em" viewBox="0 0 14.6667 14.6665" fill="none"
	xmlns="http://www.w3.org/2000/svg" xmlns:xlink="http://www.w3.org/1999/xlink">

	<defs />
	<path id="path"
		d="M7.33 0C11.38 0 14.66 3.28 14.66 7.33C14.66 11.38 11.38 14.66 7.33 14.66C3.28 14.66 0 11.38 0 7.33C0 3.28 3.28 0 7.33 0ZM7.33 1.33C4.01 1.33 1.33 4.01 1.33 7.33C1.33 10.64 4.01 13.33 7.33 13.33C10.64 13.33 13.33 10.64 13.33 7.33C13.33 4.01 10.64 1.33 7.33 1.33ZM7.66 10C7.88 10 8 10.11 8 10.33L8 11C8 11.22 7.88 11.33 7.66 11.33L7 11.33C6.77 11.33 6.66 11.22 6.66 11L6.66 10.33C6.66 10.11 6.77 10 7 10L7.66 10ZM7.23 3.33C8.03 3.33 8.68 3.52 9.21 3.9C9.73 4.29 10 4.86 10 5.61C10 6.07 9.88 6.46 9.65 6.78C9.52 6.97 9.26 7.21 8.89 7.51L8.51 7.81C8.31 7.97 8.17 8.15 8.11 8.37C8.09 8.42 8.07 8.53 8.06 8.69C8.04 8.89 7.93 9 7.73 9L6.98 9C6.76 9 6.65 8.88 6.65 8.66C6.69 8.2 6.74 7.87 6.79 7.75C6.88 7.52 7.11 7.26 7.49 6.96L7.88 6.65C8 6.56 8.65 6.1 8.65 5.7C8.65 5.29 8.58 5.14 8.38 4.92C8.17 4.7 7.72 4.62 7.3 4.62C6.9 4.62 6.55 4.73 6.38 5.01C6.3 5.13 6.24 5.26 6.19 5.41C6.17 5.47 6.15 5.54 6.14 5.61C6.11 5.79 6 5.89 5.81 5.89L5.03 5.89C4.8 5.89 4.69 5.78 4.69 5.55L4.7 5.52C4.7 5.44 4.71 5.38 4.72 5.33C4.85 4.61 5.18 4.07 5.71 3.73C6.12 3.46 6.63 3.33 7.23 3.33Z"
		fill="#606266" fill-opacity="1.000000" fill-rule="evenodd" />
</svg>