<svg width="14.000000" height="14.000000" viewBox="0 0 14 14" fill="none"
	xmlns="http://www.w3.org/2000/svg" xmlns:xlink="http://www.w3.org/1999/xlink">

	<defs>
		<clipPath id="clip3751_14714">
			<rect id="thunder-bolt" width="7.000000" height="7.000000"
				transform="translate(3.500000 3.500000)" fill="white"
				fill-opacity="0" />
		</clipPath>
		<clipPath id="clip3751_14712">
			<rect id="security" width="14.000000" height="14.000000" fill="white"
				fill-opacity="0" />
		</clipPath>
	</defs>
	<g clip-path="url(#clip3751_14712)">
		<path id="path"
			d="M7.29 0.39L7.6 0.61C7.62 0.63 7.65 0.65 7.67 0.67C7.67 0.67 7.65 0.65 7.63 0.63C7.66 0.65 7.69 0.67 7.73 0.7C7.84 0.77 7.97 0.85 8.11 0.93C8.57 1.19 9.04 1.41 9.52 1.6C10 1.79 10.52 1.92 11.03 2C11.21 2.02 11.38 2.04 11.53 2.05C11.62 2.06 11.69 2.06 11.7 2.06L12.23 2.07C12.38 2.07 12.51 2.13 12.61 2.24C12.72 2.34 12.77 2.47 12.77 2.63L12.77 3.16L12.77 4.44L12.77 5.2C12.77 6.37 12.77 7.16 12.77 7.56L12.77 7.76C12.77 10.45 9.34 13.65 6.97 13.65C4.6 13.65 1.16 10.46 1.16 7.78L1.16 2.63C1.16 2.47 1.21 2.34 1.32 2.24C1.43 2.13 1.56 2.07 1.71 2.07L2.24 2.06C2.25 2.06 2.32 2.06 2.41 2.05C2.55 2.04 2.72 2.02 2.9 2C3.41 1.92 3.93 1.79 4.41 1.6C4.9 1.41 5.37 1.18 5.82 0.93C6.07 0.79 6.29 0.65 6.33 0.61L6.64 0.39C6.86 0.24 7.07 0.24 7.29 0.39Z"
			fill="#F56C6C" fill-opacity="1.000000" fill-rule="evenodd" />
		<g clip-path="url(#clip3751_14714)">
			<path id="path"
				d="M8.01 6.1L9.4 6.31C9.51 6.33 9.59 6.39 9.63 6.5C9.67 6.6 9.66 6.7 9.58 6.79L6.78 10.16C6.69 10.27 6.58 10.3 6.45 10.25C6.33 10.21 6.26 10.11 6.26 9.98L6.26 7.73L4.74 7.44C4.63 7.42 4.55 7.35 4.52 7.24C4.48 7.14 4.5 7.04 4.58 6.96L7.51 3.77C7.6 3.67 7.71 3.64 7.83 3.69C7.95 3.74 8.01 3.83 8.01 3.96L8.01 6.1Z"
				fill="#FFFFFF" fill-opacity="1.000000" fill-rule="evenodd" />
		</g>
	</g>
</svg>