<svg width="18.000000" height="18.000000" viewBox="0 0 18 18" fill="none" xmlns="http://www.w3.org/2000/svg" xmlns:xlink="http://www.w3.org/1999/xlink">
	<desc>
			Created with Pixso.
	</desc>
	<defs>
		<clipPath id="clip3751_27920">
			<rect id="social-insurance-management" width="18.000000" height="18.000000" fill="white" fill-opacity="0"/>
		</clipPath>
		<clipPath id="clip3751_27919">
			<rect id="log-search" width="18.000000" height="18.000000" fill="white" fill-opacity="0"/>
		</clipPath>
	</defs>
	<g clip-path="url(#clip3751_27919)">
		<g clip-path="url(#clip3751_27920)">
			<path id="path" d="M8.54 0.5C8.82 0.31 9.09 0.31 9.37 0.5L9.77 0.78C9.8 0.81 9.83 0.83 9.86 0.86C9.82 0.81 9.87 0.85 9.82 0.81L9.86 0.86L9.94 0.89C10.08 0.98 10.25 1.08 10.43 1.19C11.02 1.52 11.62 1.81 12.24 2.06C12.86 2.3 13.53 2.47 14.19 2.57C14.42 2.6 14.64 2.62 14.83 2.64C14.94 2.65 15.03 2.65 15.05 2.65L15.72 2.66C15.92 2.66 16.08 2.74 16.22 2.87C16.36 3.01 16.42 3.18 16.42 3.38L16.42 4.06L16.43 5.71L16.43 6.5L16.43 7.23L16.43 8.6L16.43 9.98C16.42 13.43 12.01 17.55 8.96 17.55C5.91 17.55 1.5 13.44 1.5 10L1.5 3.38C1.5 3.18 1.56 3.01 1.7 2.87C1.84 2.74 2 2.66 2.2 2.66L2.88 2.65C2.89 2.65 2.98 2.65 3.09 2.64C3.29 2.62 3.5 2.6 3.73 2.57C4.39 2.47 5.06 2.3 5.68 2.06C6.3 1.81 6.9 1.52 7.49 1.19C7.8 1.01 8.09 0.83 8.14 0.78L8.54 0.5ZM8.96 1.96C8.83 2.05 8.52 2.25 8.19 2.43C7.55 2.8 6.89 3.12 6.2 3.39C5.47 3.68 4.7 3.87 3.94 3.98C3.51 4.05 3.11 4.08 2.93 4.08L2.93 10C2.93 12.63 6.68 16.12 8.96 16.12C11.24 16.12 14.99 12.63 14.99 10L14.99 9.76L15 9.71L15 8.96L14.99 7.4L14.99 6.69L14.99 5.71L14.99 4.08C14.79 4.08 14.41 4.04 13.98 3.98C13.22 3.87 12.45 3.68 11.72 3.39C10.56 2.93 9.36 2.27 8.96 1.96Z" fill="currentColor" fill-opacity="1.000000" fill-rule="evenodd"/>
			<path id="path" d="M9.66 5.62C9.82 5.62 9.95 5.75 9.95 5.92L9.95 8.1L11.37 8.32C11.48 8.34 11.56 8.4 11.6 8.51C11.64 8.62 11.62 8.72 11.55 8.81L8.69 12.26C8.6 12.37 8.49 12.4 8.36 12.35C8.23 12.31 8.16 12.21 8.17 12.07L8.17 9.77L6.61 9.47C6.5 9.45 6.42 9.38 6.39 9.27C6.35 9.16 6.37 9.07 6.45 8.98L9.44 5.72C9.5 5.65 9.57 5.62 9.66 5.62Z" fill="currentColor" fill-opacity="1.000000" fill-rule="evenodd"/>
		</g>
	</g>
</svg>
