<svg width="18.000000" height="18.000000" viewBox="0 0 18 18" fill="none" xmlns="http://www.w3.org/2000/svg" xmlns:xlink="http://www.w3.org/1999/xlink">
	<desc>
			Created with Pixso.
	</desc>
	<defs>
		<clipPath id="clip3751_24807">
			<rect id="add-com-mark" width="18.000000" height="18.000000" fill="white" fill-opacity="0"/>
		</clipPath>
		<clipPath id="clip3751_24806">
			<rect id="log-search" width="18.000000" height="18.000000" fill="white" fill-opacity="0"/>
		</clipPath>
		<clipPath id="clip3751_24805">
			<rect id="log-search" width="18.000000" height="18.000000" fill="white" fill-opacity="0"/>
		</clipPath>
	</defs>
	<g clip-path="url(#clip3751_24805)">
		<g clip-path="url(#clip3751_24806)">
			<g clip-path="url(#clip3751_24807)">
				<path id="path" d="M9.32 0.47L9.37 0.5L9.77 0.78C9.8 0.81 9.83 0.83 9.86 0.86L9.82 0.82L9.86 0.86L9.94 0.9C10.08 0.99 10.25 1.09 10.43 1.19C11.02 1.52 11.62 1.81 12.24 2.06C12.86 2.3 13.53 2.47 14.19 2.57C14.42 2.6 14.64 2.62 14.83 2.64C14.92 2.65 15 2.65 15.04 2.65L15.72 2.66C15.91 2.66 16.08 2.74 16.22 2.87C16.36 3.01 16.42 3.18 16.42 3.38L16.42 4.07L16.43 5.71L16.43 6.43L16.43 6.5L16.43 7.23L16.43 8.6L16.43 9.98C16.42 13.43 12.01 17.55 8.96 17.55C5.94 17.55 1.59 13.53 1.5 10.1L1.5 10L1.5 3.38C1.5 3.19 1.56 3.03 1.68 2.89C1.81 2.76 1.96 2.68 2.14 2.66L2.2 2.66L2.88 2.65C2.89 2.65 2.98 2.65 3.09 2.64C3.29 2.62 3.5 2.6 3.73 2.57C4.39 2.47 5.06 2.3 5.68 2.06C6.3 1.81 6.9 1.52 7.49 1.19C7.7 1.07 7.92 0.94 8.13 0.8L8.54 0.5C8.79 0.33 9.05 0.31 9.32 0.47ZM8.96 1.96C8.83 2.05 8.52 2.25 8.19 2.44C7.55 2.8 6.89 3.12 6.2 3.39C5.47 3.68 4.7 3.87 3.94 3.98C3.62 4.03 3.3 4.06 2.97 4.08L2.93 4.08L2.93 10C2.93 12.63 6.68 16.12 8.96 16.12C11.21 16.12 14.91 12.71 14.99 10.09L15 10L15 9.76L15 9.71L15 8.96L15 7.4L14.99 6.69L14.99 5.71L14.99 4.08C14.79 4.08 14.41 4.05 13.98 3.98C13.22 3.87 12.45 3.68 11.72 3.39C10.56 2.93 9.36 2.27 8.96 1.96ZM9 5.06C9.22 5.06 9.43 5.1 9.64 5.19C9.85 5.27 10.03 5.39 10.19 5.55C10.35 5.71 10.47 5.89 10.55 6.1C10.64 6.31 10.68 6.52 10.68 6.75L10.68 7.87L11.62 7.87C11.83 7.87 12 7.94 12.15 8.09C12.3 8.24 12.37 8.41 12.37 8.62L12.37 12C12.37 12.2 12.3 12.38 12.15 12.53C12 12.67 11.83 12.75 11.62 12.75L6.37 12.75C6.16 12.75 5.99 12.67 5.84 12.53C5.69 12.38 5.62 12.2 5.62 12L5.62 8.62C5.62 8.41 5.69 8.24 5.84 8.09C5.99 7.94 6.16 7.87 6.37 7.87L7.31 7.87L7.31 6.75C7.31 6.29 7.46 5.91 7.77 5.58C8.08 5.25 8.47 5.08 8.92 5.06L9 5.06ZM10.87 9.37L7.12 9.37L7.12 11.25L10.87 11.25L10.87 9.37ZM9 6.18C8.84 6.18 8.71 6.24 8.6 6.35C8.49 6.46 8.43 6.59 8.43 6.75L8.43 7.87L9.56 7.87L9.56 6.75C9.56 6.6 9.51 6.47 9.41 6.37C9.31 6.26 9.19 6.2 9.05 6.19L9 6.18Z" fill="currentColor" fill-opacity="1.000000" fill-rule="evenodd"/>
			</g>
		</g>
	</g>
</svg>
