<svg width="18.000000" height="18.000000" viewBox="0 0 18 18" fill="none" xmlns="http://www.w3.org/2000/svg" xmlns:xlink="http://www.w3.org/1999/xlink">

	<defs>
		<clipPath id="clip608_263">
			<rect id="icon/统计分析/未选中" width="18.000000" height="18.000000" fill="white" fill-opacity="0"/>
		</clipPath>
	</defs>
	<rect  width="18.000000" height="18.000000" fill="#FFFFFF" fill-opacity="0"/>
	<g clip-path="url(#clip608_263)">
		<path id="矢量 11" d="M16.99 7.62L16.99 12.42Q16.99 12.45 16.99 12.48Q16.99 12.51 16.99 12.54Q16.99 12.56 16.98 12.59Q16.98 12.62 16.97 12.65C16.97 12.68 16.96 12.72 16.95 12.75C16.93 12.79 16.92 12.83 16.91 12.86C16.89 12.9 16.88 12.93 16.86 12.96C16.84 12.99 16.82 13.03 16.8 13.06C16.78 13.09 16.76 13.12 16.74 13.15C16.71 13.18 16.69 13.2 16.66 13.23C16.63 13.26 16.61 13.28 16.58 13.31C16.55 13.33 16.52 13.35 16.49 13.37Q16.47 13.38 16.45 13.39Q16.42 13.41 16.39 13.43C16.36 13.45 16.32 13.46 16.29 13.48C16.25 13.49 16.22 13.51 16.18 13.52C16.15 13.53 16.11 13.54 16.07 13.54C16.04 13.55 16 13.56 15.96 13.56C15.93 13.56 15.89 13.57 15.85 13.57L2.14 13.57C2.1 13.57 2.06 13.56 2.03 13.56C1.99 13.56 1.95 13.55 1.91 13.54C1.88 13.54 1.84 13.53 1.81 13.52C1.77 13.51 1.74 13.49 1.7 13.48C1.67 13.46 1.63 13.45 1.6 13.43C1.57 13.41 1.53 13.39 1.5 13.37Q1.48 13.36 1.46 13.34L1.46 13.34Q1.43 13.32 1.41 13.31C1.38 13.28 1.36 13.26 1.33 13.23C1.3 13.2 1.28 13.18 1.25 13.15C1.23 13.12 1.21 13.09 1.19 13.06C1.17 13.03 1.15 12.99 1.13 12.96C1.11 12.93 1.1 12.9 1.08 12.86C1.07 12.83 1.06 12.79 1.04 12.75C1.03 12.72 1.02 12.68 1.02 12.65C1.01 12.61 1 12.57 1 12.54Q1 12.51 1 12.48Q1 12.45 1 12.42L1 2.14C1 2.1 1 2.06 1 2.03C1 1.99 1.01 1.95 1.02 1.91C1.02 1.88 1.03 1.84 1.04 1.81C1.06 1.77 1.07 1.73 1.08 1.7C1.1 1.67 1.11 1.63 1.13 1.6C1.15 1.57 1.17 1.53 1.19 1.5C1.21 1.47 1.23 1.44 1.25 1.41C1.28 1.38 1.3 1.36 1.33 1.33C1.36 1.3 1.38 1.28 1.41 1.25C1.44 1.23 1.47 1.21 1.5 1.19C1.53 1.17 1.57 1.15 1.6 1.13C1.63 1.11 1.67 1.1 1.7 1.08C1.74 1.07 1.77 1.05 1.81 1.04C1.84 1.03 1.88 1.02 1.91 1.02C1.95 1.01 1.99 1 2.03 1C2.06 1 2.1 0.99 2.14 0.99L10.31 0.99C10.35 0.99 10.4 1 10.44 1.01C10.49 1.02 10.53 1.03 10.57 1.05C10.61 1.06 10.65 1.08 10.69 1.11C10.73 1.13 10.76 1.16 10.8 1.19C10.83 1.23 10.86 1.26 10.88 1.3Q10.9 1.33 10.92 1.36L10.92 1.36Q10.93 1.39 10.95 1.42C10.96 1.46 10.98 1.5 10.98 1.55C10.99 1.59 11 1.64 11 1.68C11 1.73 10.99 1.77 10.98 1.81C10.98 1.86 10.96 1.9 10.95 1.94Q10.93 1.98 10.92 2L10.92 2.01Q10.9 2.03 10.88 2.06C10.86 2.1 10.83 2.13 10.8 2.17C10.76 2.2 10.73 2.23 10.69 2.25C10.65 2.28 10.61 2.3 10.57 2.32C10.53 2.33 10.49 2.35 10.44 2.35C10.4 2.36 10.35 2.37 10.31 2.37L2.37 2.37L2.37 12.19L15.62 12.19L15.62 7.62C15.62 7.58 15.63 7.53 15.64 7.49C15.64 7.44 15.66 7.4 15.67 7.36C15.69 7.32 15.71 7.28 15.74 7.24C15.76 7.2 15.79 7.17 15.82 7.14C15.85 7.1 15.89 7.08 15.93 7.05C15.96 7.03 16 7 16.05 6.99C16.09 6.97 16.13 6.96 16.17 6.95C16.22 6.94 16.26 6.93 16.31 6.93C16.35 6.93 16.4 6.94 16.44 6.95C16.49 6.96 16.53 6.97 16.57 6.99C16.61 7 16.65 7.03 16.69 7.05C16.73 7.08 16.76 7.1 16.79 7.14C16.83 7.17 16.86 7.2 16.88 7.24C16.91 7.28 16.93 7.32 16.94 7.36C16.96 7.4 16.97 7.44 16.98 7.49C16.99 7.53 16.99 7.57 16.99 7.62ZM13.75 1.74L16.73 1.31C16.75 1.32 16.82 1.32 16.84 1.32C16.85 1.33 16.95 1.4 16.96 1.42C16.96 1.42 16.97 1.44 16.97 1.47L16.97 1.47C16.98 1.51 17 1.56 16.99 1.57L16.51 4.57C16.51 4.61 16.5 4.65 16.47 4.69Q16.45 4.71 16.42 4.73Q16.4 4.75 16.37 4.76C16.33 4.77 16.29 4.77 16.24 4.76C16.2 4.75 16.17 4.73 16.14 4.7L15.35 3.92L9.93 9.35Q9.68 9.59 9.44 9.59Q9.2 9.59 8.96 9.35L6.38 6.77L4.6 8.54Q4.36 8.78 4.12 8.78Q3.87 8.78 3.63 8.54C3.31 8.22 3.31 7.9 3.63 7.57L5.76 5.44C5.8 5.39 5.84 5.35 5.88 5.3Q6.12 5.06 6.37 5.06C6.5 5.06 6.64 5.11 6.77 5.23C6.79 5.24 6.89 5.34 6.9 5.35L9.44 7.89L14.38 2.95L13.57 2.14C13.55 2.12 13.5 2.04 13.49 2.01C13.49 1.99 13.5 1.89 13.51 1.87C13.52 1.85 13.58 1.77 13.61 1.76C13.63 1.75 13.72 1.74 13.75 1.74ZM13.93 15.57L4.06 15.57C3.84 15.57 3.66 15.75 3.66 15.97L3.66 16.59C3.66 16.82 3.84 16.99 4.06 16.99L13.93 16.99C14.15 16.99 14.33 16.82 14.33 16.59L14.33 15.97C14.33 15.75 14.15 15.57 13.93 15.57Z" fill="#303133" fill-opacity="1.000000" fill-rule="evenodd"/>
	</g>
</svg>
