<svg width="18.000000" height="18.000000" viewBox="0 0 18 18" fill="none" xmlns="http://www.w3.org/2000/svg" xmlns:xlink="http://www.w3.org/1999/xlink">
	<defs>
		<clipPath id="clip751_10691">
			<rect id="encrypted-chat" width="16.000000" height="16.000000" transform="translate(2.000000 2.000000)" fill="white" fill-opacity="0"/>
		</clipPath>
		<clipPath id="clip751_10689">
			<rect id="user-group" width="18.000000" height="18.000000" fill="white" fill-opacity="0"/>
		</clipPath>
	</defs>
	<g clip-path="url(#clip751_10689)" fill="currentColor" fill-opacity="1.000000" fill-rule="evenodd">
		<path id="path" d="M8.62 9.75C8.87 9.75 9 9.87 9 10.12L9 10.87C9 11.12 8.87 11.25 8.62 11.25L6 11.25C4.6 11.25 3.42 12.2 3.09 13.5C3.03 13.74 3 13.99 3 14.25L3 15L8.62 15C8.87 15 9 15.12 9 15.37L9 16.12C9 16.37 8.87 16.5 8.62 16.5L2.25 16.5C1.83 16.5 1.5 16.16 1.5 15.75L1.5 14.25C1.5 11.76 3.51 9.75 6 9.75L8.62 9.75ZM7.87 1.12C9.94 1.12 11.62 2.8 11.62 4.87C11.62 6.94 9.94 8.62 7.87 8.62C5.8 8.62 4.12 6.94 4.12 4.87C4.12 2.8 5.8 1.12 7.87 1.12ZM7.87 2.62C6.63 2.62 5.62 3.63 5.62 4.87C5.62 6.11 6.63 7.12 7.87 7.12C9.11 7.12 10.12 6.11 10.12 4.87C10.12 3.63 9.11 2.62 7.87 2.62Z"  />
		<g clip-path="url(#clip751_10691)">
			<path id="path" d="M13.83 10C14.16 10 14.48 10.06 14.78 10.19C15.09 10.31 15.36 10.49 15.6 10.73C15.83 10.96 16.01 11.23 16.14 11.54C16.26 11.84 16.33 12.16 16.33 12.5L16.33 13L16.99 13C17.22 13 17.33 13.11 17.33 13.33L17.33 17.33C17.33 17.55 17.22 17.66 16.99 17.66L10.66 17.66C10.44 17.66 10.33 17.55 10.33 17.33L10.33 13.33C10.33 13.11 10.44 13 10.66 13L11.33 13L11.33 12.5C11.33 12.16 11.39 11.84 11.52 11.54C11.65 11.23 11.83 10.96 12.06 10.73C12.29 10.49 12.57 10.31 12.87 10.19C13.18 10.06 13.5 10 13.83 10ZM15.99 14.33L11.66 14.33L11.66 16.33L15.99 16.33L15.99 14.33ZM13.83 11.33C13.52 11.33 13.25 11.43 13.03 11.65C12.8 11.86 12.68 12.12 12.66 12.43L12.66 12.5L12.66 13L14.99 13L14.99 12.5C14.99 12.17 14.88 11.9 14.65 11.67C14.43 11.44 14.15 11.33 13.83 11.33Z"/>
		</g>
	</g>
</svg>
