<svg width="18.000000" height="18.000000" viewBox="0 0 18 18" fill="none" xmlns="http://www.w3.org/2000/svg" xmlns:xlink="http://www.w3.org/1999/xlink">
	<defs>
		<clipPath id="clip751_10583">
			<rect id="user-group (1)" width="18.000000" height="18.000000" fill="white" fill-opacity="0"/>
		</clipPath>
	</defs>
	<g clip-path="url(#clip751_10583)" fill="currentColor">
		<path id="path" d="M6.37 3.37C6.12 3.37 5.89 3.43 5.66 3.52C5.44 3.62 5.24 3.76 5.07 3.93C4.9 4.11 4.76 4.31 4.67 4.54C4.58 4.76 4.53 5 4.53 5.25C4.53 5.49 4.58 5.73 4.67 5.95C4.76 6.18 4.9 6.38 5.07 6.56C5.24 6.73 5.44 6.87 5.66 6.97C5.89 7.06 6.12 7.12 6.37 7.12C6.62 7.12 6.85 7.06 7.08 6.97C7.3 6.87 7.5 6.73 7.67 6.56C7.84 6.38 7.98 6.18 8.07 5.95C8.16 5.73 8.21 5.49 8.21 5.25C8.21 5 8.16 4.76 8.07 4.54C7.98 4.31 7.84 4.11 7.67 3.93C7.5 3.76 7.3 3.62 7.08 3.52C6.85 3.43 6.62 3.37 6.37 3.37ZM3 5.25C3 4.8 3.08 4.37 3.25 3.95C3.42 3.54 3.67 3.17 3.98 2.86C4.3 2.54 4.66 2.3 5.08 2.13C5.49 1.96 5.92 1.87 6.37 1.87C6.82 1.87 7.25 1.96 7.66 2.13C8.08 2.3 8.44 2.54 8.76 2.86C9.07 3.17 9.32 3.54 9.49 3.95C9.66 4.37 9.75 4.8 9.75 5.25C9.75 5.69 9.66 6.12 9.49 6.54C9.32 6.95 9.07 7.32 8.76 7.63C8.44 7.95 8.08 8.19 7.66 8.36C7.25 8.53 6.82 8.62 6.37 8.62C5.92 8.62 5.49 8.53 5.08 8.36C4.66 8.19 4.3 7.95 3.98 7.63C3.67 7.32 3.42 6.95 3.25 6.54C3.08 6.12 3 5.69 3 5.25ZM4.37 11.25C3.01 11.25 1.87 12.37 1.87 13.8L1.87 15L10.87 15L10.87 13.8C10.87 12.37 9.73 11.25 8.37 11.25L4.37 11.25ZM0.37 13.8C0.37 11.56 2.16 9.75 4.37 9.75L8.37 9.75C10.58 9.75 12.37 11.56 12.37 13.8L12.37 15.82C12.37 16.19 12.07 16.5 11.7 16.5L1.04 16.5C0.67 16.5 0.37 16.19 0.37 15.82L0.37 13.8ZM17.12 15.75L13.77 15.75L13.77 14.25L16.12 14.25L16.12 13.8C16.12 13.04 15.49 12.37 14.62 12.37L13.64 12.37C13.5 11.82 13.25 11.32 12.9 10.87L14.62 10.87C16.28 10.87 17.62 12.18 17.62 13.8L17.62 15.26C17.62 15.53 17.4 15.75 17.12 15.75ZM12.37 7.5C12.37 7.08 12.71 6.75 13.12 6.75C13.53 6.75 13.87 7.08 13.87 7.5C13.87 7.91 13.53 8.25 13.12 8.25C12.71 8.25 12.37 7.91 12.37 7.5ZM13.12 5.25C11.88 5.25 10.87 6.25 10.87 7.5C10.87 8.74 11.88 9.75 13.12 9.75C14.36 9.75 15.37 8.74 15.37 7.5C15.37 6.25 14.36 5.25 13.12 5.25Z"  fill-opacity="1.000000" fill-rule="evenodd"/>
	</g>
</svg>

