<svg width="14.000000" height="14.000000" viewBox="0 0 14 14" fill="none"
	xmlns="http://www.w3.org/2000/svg" xmlns:xlink="http://www.w3.org/1999/xlink">

	<defs>
		<clipPath id="clip3751_14679">
			<rect id="folder-upload" width="16.000000" height="16.000000"
				transform="translate(-1.000000 -2.000000)" fill="white"
				fill-opacity="0" />
		</clipPath>
		<clipPath id="clip3751_14678">
			<rect id="warning-fill" width="14.000000" height="14.000000" fill="white"
				fill-opacity="0" />
		</clipPath>
	</defs>
	<g clip-path="url(#clip3751_14678)">
		<g clip-path="url(#clip3751_14679)">
			<path id="减去顶层"
				d="M7 13.125C10.3828 13.125 13.125 10.3828 13.125 7C13.125 3.61719 10.3828 0.875 7 0.875C3.61719 0.875 0.875 3.61719 0.875 7C0.875 10.3828 3.61719 13.125 7 13.125ZM9.61719 6.17969L7.25977 3.82275C7.10352 3.66553 6.94727 3.66602 6.78906 3.823L4.43164 6.17993C4.35352 6.25854 4.31445 6.33716 4.31445 6.41577C4.31445 6.49438 4.35352 6.57275 4.43164 6.65137L4.9043 7.1228C5.06055 7.27979 5.21875 7.27979 5.375 7.1228L6.36328 6.13477L6.36328 9.58667C6.36328 9.80884 6.47461 9.91992 6.69531 9.91992L7.36328 9.91992C7.58398 9.91992 7.69531 9.80884 7.69531 9.58667L7.69531 6.14331L8.67578 7.12231C8.83203 7.27954 8.98828 7.27954 9.14648 7.12231L9.61719 6.65112C9.77539 6.4939 9.77539 6.33691 9.61719 6.17969Z"
				clip-rule="evenodd" fill="#409EFF" fill-opacity="1.000000"
				fill-rule="evenodd" />
		</g>
	</g>
</svg>