<?xml version="1.0" encoding="UTF-8"?>
<svg width="1em" height="1em" viewBox="0 0 16 16" version="1.1" xmlns="http://www.w3.org/2000/svg" xmlns:xlink="http://www.w3.org/1999/xlink">
	<path id="path" d="M0 13C0 10.33 5.32 9 8 9C10.67 9 16 10.33 16 13L16 16L0 16L0 13ZM14.1 13C14.1 12.36 10.97 10.9 8 10.9C5.03 10.9 1.9 12.36 1.9 13L1.9 14.09L14.1 14.09L14.1 13ZM4 4C4 1.79 5.79 0 8 0C10.21 0 12 1.79 12 4C12 6.2 10.21 8 8 8C5.79 8 4 6.2 4 4ZM10.1 4C10.1 2.83 9.16 1.9 8 1.9C6.83 1.9 5.9 2.83 5.9 4C5.9 5.16 6.83 6.09 8 6.09C9.16 6.09 10.1 5.16 10.1 4Z" fill="#303133" fill-opacity="1.000000" fill-rule="evenodd"/>
</svg>