<svg width="18.000000" height="18.000000" viewBox="0 0 18 18" fill="none" xmlns="http://www.w3.org/2000/svg" xmlns:xlink="http://www.w3.org/1999/xlink">
	<defs>
		<clipPath id="clip751_10569">
			<rect id="old-version" width="18.000000" height="18.000000" fill="white" fill-opacity="0"/>
		</clipPath>
	</defs>
	<g clip-path="url(#clip751_10569)">
		<path id="path" d="M2.25 3C2.25 2.75 2.37 2.62 2.62 2.62L15.37 2.62C15.62 2.62 15.75 2.75 15.75 3L15.75 12.75C15.75 13 15.62 13.12 15.37 13.12L2.62 13.12C2.37 13.12 2.25 13 2.25 12.75L2.25 3Z" fill="#000000" fill-opacity="0" fill-rule="nonzero"/>
		<path id="path" d="M2.62 2.62L15.37 2.62C15.62 2.62 15.75 2.75 15.75 3L15.75 12.75C15.75 13 15.62 13.12 15.37 13.12L2.62 13.12C2.37 13.12 2.25 13 2.25 12.75L2.25 3C2.25 2.75 2.37 2.62 2.62 2.62ZM4.5 15.37L13.5 15.37" stroke="#303133" stroke-opacity="1.000000" stroke-width="1.500000"/>
	</g>
</svg>


