<svg width="24.000000" height="24.000000" viewBox="0 0 24 24" fill="currentColor" xmlns="http://www.w3.org/2000/svg" xmlns:xlink="http://www.w3.org/1999/xlink">

		<defs>
			<clipPath id="clip3751_48632">
				<rect id="plus (2)" width="24.000000" height="24.000000" fill="white" fill-opacity="0"/>
			</clipPath>
			<clipPath id="clip3751_48631">
				<rect id="放大" width="24.000000" height="24.000000" transform="matrix(-1 0 0 1 24 0)" fill="white" fill-opacity="0"/>
			</clipPath>
		</defs>
		<g clip-path="url(#clip3751_48631)">
			<g clip-path="url(#clip3751_48632)">
				<path id="path" d="M12.35 2C12.58 2 12.66 2.02 12.74 2.06C12.82 2.11 12.88 2.17 12.93 2.25C12.97 2.33 13 2.41 13 2.64L13 11L21.35 11C21.58 11 21.66 11.02 21.74 11.06C21.82 11.11 21.88 11.17 21.93 11.25C21.97 11.33 22 11.41 22 11.64L22 12.35C22 12.58 21.97 12.66 21.93 12.74C21.88 12.82 21.82 12.88 21.74 12.93C21.66 12.97 21.58 13 21.35 13L13 13L13 21.35C13 21.58 12.97 21.66 12.93 21.74C12.88 21.82 12.82 21.88 12.74 21.93C12.66 21.97 12.58 22 12.35 22L11.64 22C11.41 22 11.33 21.97 11.25 21.93C11.17 21.88 11.11 21.82 11.06 21.74C11.02 21.66 11 21.58 11 21.35L10.99 13L2.64 13C2.41 13 2.33 12.97 2.25 12.93C2.17 12.88 2.11 12.82 2.06 12.74C2.02 12.66 2 12.58 2 12.35L2 11.64C2 11.41 2.02 11.33 2.06 11.25C2.11 11.17 2.17 11.11 2.25 11.06C2.33 11.02 2.41 11 2.64 11L11 10.99L11 2.64C11 2.41 11.02 2.33 11.06 2.25C11.11 2.17 11.17 2.11 11.25 2.06C11.33 2.02 11.41 2 11.64 2L12.35 2Z"  fill-opacity="1.000000" fill-rule="evenodd"/>
			</g>
		</g>
	</svg>
	