<svg width="24.000000" height="24.000000" viewBox="0 0 24 24" fill="currentColor"
	xmlns="http://www.w3.org/2000/svg" xmlns:xlink="http://www.w3.org/1999/xlink">

	<defs>
		<clipPath id="clip3751_49028">
			<rect id="scale" width="24.000000" height="24.000000"
				transform="matrix(-1 0 0 1 24 0)" fill="white" fill-opacity="0" />
		</clipPath>
	</defs>
	<g clip-path="url(#clip3751_49028)">
		<path id="path"
			d="M13.63 11.45C13.35 11.45 13.11 11.35 12.92 11.16C12.72 10.96 12.63 10.73 12.63 10.45L12.63 4.95C12.63 4.62 12.79 4.45 13.13 4.45L14.13 4.45C14.46 4.45 14.63 4.62 14.63 4.95L14.63 7.95L19.4 3.17C19.64 2.94 19.88 2.94 20.11 3.17L20.82 3.88C21.05 4.12 21.05 4.35 20.82 4.59L15.95 9.45L19.13 9.45C19.46 9.45 19.63 9.62 19.63 9.95L19.63 10.95C19.63 11.28 19.46 11.45 19.13 11.45L13.63 11.45Z"
			fill-opacity="1.000000" fill-rule="evenodd" />
		<path id="path"
			d="M3.9 20.82L3.19 20.11C2.95 19.87 2.95 19.64 3.19 19.4L8.03 14.56L5.07 14.56C4.85 14.56 4.77 14.54 4.69 14.49C4.6 14.45 4.54 14.39 4.5 14.3C4.45 14.22 4.43 14.14 4.43 13.92L4.43 13.2C4.43 12.98 4.45 12.9 4.5 12.82C4.54 12.74 4.6 12.67 4.69 12.63C4.77 12.58 4.85 12.56 5.07 12.56L10.43 12.56C10.71 12.56 10.94 12.66 11.14 12.85C11.33 13.05 11.43 13.28 11.43 13.56L11.43 18.92C11.43 19.14 11.41 19.22 11.36 19.3C11.32 19.39 11.26 19.45 11.17 19.49C11.09 19.54 11.01 19.56 10.79 19.56L10.07 19.56C9.85 19.56 9.77 19.54 9.69 19.49C9.6 19.45 9.54 19.39 9.5 19.3C9.45 19.22 9.43 19.14 9.43 18.92L9.43 15.99L4.6 20.82C4.37 21.05 4.13 21.05 3.9 20.82Z"
			fill-opacity="1.000000" fill-rule="evenodd" />
	</g>
</svg>