<svg width="24.000000" height="24.000000" viewBox="0 0 24 24" fill="currentColor" xmlns="http://www.w3.org/2000/svg" xmlns:xlink="http://www.w3.org/1999/xlink">
		<defs>
			<clipPath id="clip3751_48623">
				<rect id="全屏" width="24.000000" height="24.000000" transform="matrix(-1 0 0 1 24 0)" fill="white" fill-opacity="0"/>
			</clipPath>
		</defs>
		<g clip-path="url(#clip3751_48623)">
			<path id="path" d="M10.55 12.74L11.25 13.45C11.49 13.68 11.49 13.92 11.25 14.15L6.41 19L9.37 19C9.59 19 9.67 19.02 9.75 19.06C9.84 19.11 9.9 19.17 9.94 19.25C9.99 19.33 10.01 19.41 10.01 19.64L10.01 20.35C10.01 20.58 9.99 20.66 9.94 20.74C9.9 20.82 9.84 20.88 9.75 20.93C9.67 20.97 9.59 21 9.37 21L4.01 21C3.73 21 3.5 20.9 3.3 20.7C3.11 20.51 3.01 20.27 3.01 20L3.01 14.64C3.01 14.41 3.03 14.33 3.08 14.25C3.12 14.17 3.18 14.11 3.27 14.06C3.35 14.02 3.43 14 3.65 14L4.37 14C4.59 14 4.67 14.02 4.75 14.06C4.84 14.11 4.9 14.17 4.94 14.25C4.99 14.33 5.01 14.41 5.01 14.64L5.01 17.57L9.84 12.74C10.07 12.5 10.31 12.5 10.55 12.74ZM20 3C20.27 3 20.51 3.09 20.7 3.29C20.9 3.48 21 3.72 21 4L21 9.5C21 9.83 20.83 10 20.5 10L19.5 10C19.16 10 19 9.83 19 9.5L19 6.49L14.22 11.27C13.98 11.51 13.75 11.51 13.51 11.27L12.8 10.57C12.57 10.33 12.57 10.09 12.8 9.86L17.67 5L14.5 5C14.16 5 14 4.83 14 4.5L14 3.5C14 3.16 14.16 3 14.5 3L20 3Z"  fill-opacity="1.000000" fill-rule="evenodd"/>
		</g>
	</svg>
	
	