<svg width="24.000000" height="24.000000" viewBox="0 0 24 24" fill="currentColor" xmlns="http://www.w3.org/2000/svg" xmlns:xlink="http://www.w3.org/1999/xlink">
	<defs>
		<clipPath id="clip3751_48646">
			<rect id="location (2)" width="24.000000" height="24.000000" fill="white" fill-opacity="0"/>
		</clipPath>
		<clipPath id="clip3751_48645">
			<rect id="定位" width="24.000000" height="24.000000" fill="white" fill-opacity="0"/>
		</clipPath>
	</defs>
	<g clip-path="url(#clip3751_48645)">
		<g clip-path="url(#clip3751_48646)">
			<path id="path" d="M12.5 1C12.83 1 13 1.16 13 1.5L13 3.05C17.17 3.51 20.48 6.82 20.94 11L22.5 11C22.83 11 23 11.16 23 11.5L23 12.5C23 12.83 22.83 13 22.5 13L20.94 13C20.48 17.17 17.17 20.48 13 20.94L13 22.5C13 22.83 12.83 23 12.5 23L11.5 23C11.16 23 11 22.83 11 22.5L11 20.94C6.82 20.48 3.51 17.17 3.05 13L1.5 13C1.16 13 1 12.83 1 12.5L1 11.5C1 11.16 1.16 11 1.5 11L3.05 11C3.51 6.82 6.82 3.51 11 3.05L11 1.5C11 1.16 11.16 1 11.5 1L12.5 1ZM13 5.07L13 6.5C13 6.83 12.83 7 12.5 7L11.5 7C11.16 7 11 6.83 11 6.5L11 5.07C7.93 5.5 5.51 7.93 5.07 11L6.5 11C6.83 11 7 11.16 7 11.5L7 12.5C7 12.83 6.83 13 6.5 13L5.07 13C5.5 16.06 7.93 18.49 11 18.92L11 17.5C11 17.16 11.16 17 11.5 17L12.5 17C12.83 17 13 17.16 13 17.5L13 18.92C16.06 18.49 18.49 16.06 18.92 13L17.5 13C17.16 13 17 12.83 17 12.5L17 11.5C17 11.16 17.16 11 17.5 11L18.92 11C18.49 7.93 16.06 5.5 13 5.07Z"  fill-opacity="1.000000" fill-rule="evenodd"/>
			<circle id="椭圆 43" r="2.250000" transform="matrix(-1 0 0 -1 12 12)"  fill-opacity="1.000000"/>
		</g>
	</g>
</svg>
