<svg width="13.333984" height="13.333496" viewBox="0 0 13.334 13.3335" fill="none" xmlns="http://www.w3.org/2000/svg" xmlns:xlink="http://www.w3.org/1999/xlink">

	<defs/>
	<path id="path" d="M8.66 0C8.85 0 9 0.06 9.13 0.19C9.26 0.32 9.33 0.48 9.33 0.66L9.33 1.33L12.9 1.33C13.05 1.33 13.1 1.34 13.16 1.37C13.21 1.4 13.25 1.44 13.28 1.5C13.31 1.55 13.33 1.61 13.33 1.76L13.33 2.23C13.33 2.38 13.31 2.44 13.28 2.49C13.25 2.55 13.21 2.59 13.16 2.62C13.1 2.65 13.05 2.66 12.9 2.66L12 2.66L12 12.66C12 12.85 11.93 13 11.8 13.13C11.67 13.26 11.51 13.33 11.33 13.33L2 13.33C1.81 13.33 1.65 13.26 1.52 13.13C1.39 13 1.33 12.85 1.33 12.66L1.33 2.66L0.42 2.66C0.27 2.66 0.22 2.65 0.16 2.62C0.11 2.59 0.07 2.55 0.04 2.49C0.01 2.44 0 2.38 0 2.23L0 1.76C0 1.61 0.01 1.55 0.04 1.5C0.07 1.44 0.11 1.4 0.16 1.37C0.22 1.34 0.27 1.33 0.42 1.33L4 1.33L4 0.66C4 0.48 4.06 0.32 4.19 0.19C4.32 0.06 4.48 0 4.66 0L8.66 0ZM10.66 2.66L2.66 2.66L2.66 12L10.66 12L10.66 2.66ZM5.66 4.66C5.88 4.66 6 4.77 6 5L6 9.66C6 9.88 5.88 10 5.66 10L5 10C4.77 10 4.66 9.88 4.66 9.66L4.66 5C4.66 4.77 4.77 4.66 5 4.66L5.66 4.66ZM8.33 4.66C8.55 4.66 8.66 4.77 8.66 5L8.66 9.66C8.66 9.88 8.55 10 8.33 10L7.66 10C7.44 10 7.33 9.88 7.33 9.66L7.33 5C7.33 4.77 7.44 4.66 7.66 4.66L8.33 4.66Z" fill="currentColor" fill-opacity="1.000000" fill-rule="evenodd"/>
</svg>

      